<svg width="320" height="320" xmlns="http://www.w3.org/2000/svg">
 <style type="text/css">.st0{fill:#6c757d;}
	.st1{enable-background:new    ;}</style>

 <g stroke="null">
  <title>background</title>
  <rect stroke="null" fill="none" id="canvas_background" height="322" width="322" y="-1" x="-1"/>
 </g>
 <g stroke="null">
  <title>Layer 1</title>
  <path stroke="null" d="m201,400.3c-34.8,0 -63,28.2 -63,63s28.2,63 63,63s63,-28.2 63,-63s-28.2,-63 -63,-63zm-35.9,88.9c0,-6.7 5.2,-12.2 11.9,-12.5l0.2,24.8c-6.7,-0.1 -12,-5.6 -12.1,-12.3zm74.4,-39.9c0,0.3 -0.3,0.5 -0.5,0.6c0,0.8 0,1.8 -0.1,2.4c-0.4,1.9 -1.2,3.4 -2.4,4.7l0,0c-3.9,3.7 -7.6,3.1 -14.5,2c-1.3,-0.2 -2.7,-0.4 -4.3,-0.7c-0.6,-0.1 -1.4,-0.3 -2.2,-0.4l-0.1,0.3c0,0.2 -0.2,0.3 -0.4,0.2c0,0 -5,-1.3 -6.6,-1.9c-4.5,-1.7 -6.9,-5 -7.1,-10.1c-0.9,-0.5 -1.5,-1.3 -1.5,-2.1l0,-0.1c-4.8,0 -7.2,0 -10.9,0.1l0,0c-5.7,0 -10.3,4.7 -10.3,10.4s4.7,10.4 10.4,10.3l5.9,0l1.5,0c0.1,0 0.1,0 0.1,0l0,0l5.9,0c7.3,0 13.5,5.9 13.5,13.2s-5.8,13.3 -13.2,13.4l-13,0.1c-1.1,5.5 -5.8,9.7 -11.6,10l-0.2,-24.8c6.5,0.2 11.8,5.4 12,11.9l12.8,-0.1c5.7,0 10.4,-4.7 10.3,-10.4c0,-5.7 -4.7,-10.4 -10.4,-10.3l-5.9,0l-2.4,0c-0.1,0 0.6,0 -1,0l0,0l-5,0c-7.3,0 -13,-5.4 -13.1,-12.7c0,-7.3 6.1,-12.9 13.4,-12.9l0,0c3.6,0 7.3,-0.5 10.9,-0.5c0.1,-0.8 0.7,-1.8 1.5,-2.2c0.3,-4.8 2.6,-8 7,-9.7c1.4,-0.5 5.1,-1.6 6.6,-2l0.1,0c0.1,0 0.2,0 0.2,0c0.1,0 0.1,0.1 0.1,0.2l0.1,0.3c0.7,-0.2 1.6,-0.3 2.2,-0.4c1.6,-0.2 3,-0.5 4.3,-0.7c6.8,-1.2 10.6,-1.8 14.5,1.8l0,0c1.2,1.2 2,2.8 2.4,4.7c0.1,0.5 0.2,1.5 0.2,2.4c0.3,0.1 0.5,0.3 0.5,0.6l0.3,1.8c0.1,0.4 -0.2,0.7 -0.6,0.7l-1.7,0c-0.4,0 -0.7,-0.3 -0.6,-0.7l0.3,-1.8c0,-0.2 0.1,-0.4 0.3,-0.5c0,-0.8 0,-1.8 -0.1,-2.2c-0.3,-1.6 -1,-2.9 -2,-3.9c-3.3,-3.1 -6.4,-2.6 -13.2,-1.4c-1.3,0.2 -2.8,0.5 -4.4,0.7c-0.5,0.1 -1.3,0.2 -2,0.4l0.2,0.7c0,0.2 -0.1,0.3 -0.2,0.4l-0.1,0c-3.1,0.8 -5.3,1.5 -6.2,1.8c-3,1.2 -4.5,3.1 -4.9,6.3c0.3,0.2 0.5,0.6 0.5,1l0,5.6c0,0.5 -0.2,0.8 -0.5,1.1c0.3,3.5 1.8,5.6 5,6.8c1.4,0.5 5.5,1.6 6.3,1.8c0.2,0 0.3,0.2 0.2,0.4l-0.2,0.7c0.7,0.1 1.5,0.3 2,0.4c1.6,0.2 3.1,0.5 4.4,0.7c6.8,1.1 9.9,1.6 13.2,-1.6c1,-1 1.7,-2.4 2,-3.9c0.1,-0.4 0.1,-1.4 0.1,-2.2c-0.1,-0.1 -0.3,-0.3 -0.3,-0.5l-0.3,-1.8c-0.1,-0.4 0.2,-0.7 0.6,-0.7l1.7,0c0.4,0 0.7,0.3 0.6,0.7l-0.1,1.6z" class="st0" id="XMLID_101_"/>
  <g stroke="null" id="XMLID_19_">
   <g stroke="null" id="svg_1" class="st1">
    <path stroke="null" id="svg_2" d="m96.5,568c-0.4,-0.2 -0.9,-0.7 -1.8,-1.3c-0.8,-0.7 -1.8,-1.3 -3,-2c-1.2,-0.7 -2.5,-1.3 -4,-1.9c-1.5,-0.5 -3.1,-0.8 -4.8,-0.8c-2,0 -3.7,0.2 -5.2,0.7c-1.5,0.5 -2.7,1.1 -3.6,1.9s-1.6,1.7 -2.1,2.7c-0.4,1 -0.7,2 -0.7,3c0,1.4 0.5,2.6 1.4,3.6c0.9,1 2.2,1.8 3.7,2.5s3.3,1.4 5.3,1.9c2,0.6 4,1.2 6,1.8c2.1,0.6 4.1,1.4 6,2.1c2,0.8 3.7,1.8 5.3,2.9c1.6,1.2 2.8,2.6 3.7,4.2c0.9,1.6 1.4,3.6 1.4,5.9c0,2.7 -0.6,5.1 -1.7,7.3c-1.1,2.2 -2.6,4 -4.5,5.6c-1.9,1.5 -4.2,2.7 -6.8,3.6s-5.4,1.3 -8.4,1.3c-2,0 -4,-0.2 -5.9,-0.7c-2,-0.4 -3.8,-1.1 -5.6,-2c-1.8,-0.9 -3.5,-1.9 -5,-3.1c-1.6,-1.2 -2.9,-2.6 -4.2,-4.2c-0.3,-0.4 -0.5,-0.8 -0.5,-1.2c0,-0.4 0.2,-0.8 0.7,-1.1l3,-2.5c0.4,-0.4 0.9,-0.5 1.3,-0.5c0.4,0 0.8,0.3 1.1,0.7l0.5,0.5c1.1,1.2 2.3,2.2 3.7,3.1c1.4,0.9 2.7,1.6 4.1,2.2c1.4,0.6 2.7,1 3.9,1.3c1.2,0.3 2.3,0.4 3.2,0.4c1.6,0 3.1,-0.2 4.8,-0.6c1.6,-0.4 3.1,-1 4.5,-1.9c1.4,-0.8 2.5,-1.9 3.3,-3.2c0.9,-1.3 1.3,-2.8 1.3,-4.5c0,-1.5 -0.4,-2.7 -1.3,-3.7c-0.9,-1 -2,-1.9 -3.5,-2.6c-1.5,-0.8 -3.2,-1.4 -5.1,-2c-1.9,-0.6 -4,-1.2 -6.3,-1.9c-3.1,-0.9 -5.7,-1.8 -7.9,-2.8c-2.2,-1 -4,-2.1 -5.4,-3.3s-2.5,-2.5 -3.1,-4c-0.7,-1.5 -1,-3.1 -1,-5c0,-2.3 0.5,-4.4 1.4,-6.4c0.9,-1.9 2.2,-3.6 4,-5c1.7,-1.4 3.8,-2.5 6.2,-3.3s5.1,-1.2 8.1,-1.2c1.6,0 3.3,0.2 5,0.6c1.7,0.4 3.4,1 5.1,1.7c1.6,0.7 3.2,1.6 4.6,2.6c1.4,1 2.7,2.1 3.7,3.3c0.4,0.4 0.5,0.8 0.6,1.2c0,0.4 -0.2,0.8 -0.6,1.2l-2.7,2.6c-0.4,0.4 -0.8,0.6 -1.2,0.5s-0.6,0.1 -1,-0.2z" class="st0"/>
    <path stroke="null" id="svg_3" d="m140.9,585.1c0.5,0 0.9,0.1 1.2,0.4c0.3,0.3 0.5,0.7 0.5,1.2l0,4c0,0.5 -0.2,0.9 -0.5,1.2c-0.3,0.4 -0.7,0.5 -1.2,0.5l-24.8,0c-1.2,0 -1.8,-0.6 -1.8,-1.8l0,-4c0,-1.1 0.6,-1.7 1.8,-1.7l24.8,0l0,0.2z" class="st0"/>
    <path stroke="null" id="svg_4" d="m191.2,555.6c0.5,0 0.9,0.1 1.2,0.4c0.4,0.3 0.6,0.7 0.6,1.3l0,3.9c0,0.5 -0.2,0.9 -0.5,1.3c-0.3,0.4 -0.8,0.6 -1.4,0.6l-15.9,0l0,47.6c0,0.5 -0.2,0.9 -0.5,1.2c-0.3,0.4 -0.7,0.5 -1.3,0.5l-3.9,0c-0.5,0 -0.9,-0.2 -1.2,-0.5c-0.4,-0.3 -0.5,-0.8 -0.5,-1.3l0,-47.6l-16,0c-0.5,0 -0.9,-0.2 -1.3,-0.5c-0.3,-0.3 -0.5,-0.8 -0.5,-1.4l0,-3.9c0,-0.5 0.2,-0.9 0.5,-1.2c0.3,-0.3 0.8,-0.5 1.3,-0.5l39.4,0l0,0.1z" class="st0"/>
    <path stroke="null" id="svg_5" d="m201.7,557.4c0,-1.2 0.6,-1.8 1.7,-1.8l22.1,0c2.5,0 4.9,0.5 7.1,1.4c2.2,1 4.1,2.3 5.7,3.9c1.6,1.6 2.9,3.6 3.8,5.8c0.9,2.2 1.4,4.6 1.4,7.1c0,1.8 -0.2,3.5 -0.7,5.1c-0.5,1.6 -1.2,3.2 -2.1,4.6c-0.9,1.4 -2,2.7 -3.2,3.8c-1.2,1.1 -2.6,2 -4.2,2.8l10.1,20.7l0,0.5c0,0.8 -0.5,1.2 -1.4,1.2l-4.6,0c-0.8,0 -1.4,-0.5 -1.8,-1.4l-9.2,-19.3c-0.2,0 -0.4,0 -0.7,0s-0.6,0 -1,0c-0.4,0 -1,0 -1.8,0c-0.7,0 -1.7,0 -2.9,0c-1.2,0 -2.7,0 -4.5,0s-3.9,0 -6.4,0l0,18.9c0,1.1 -0.6,1.7 -1.8,1.7l-4,0c-1.1,0 -1.7,-0.6 -1.7,-1.7l0,-53.3l0.1,0zm34.5,16.2c0,-1.4 -0.3,-2.8 -0.8,-4.1c-0.5,-1.3 -1.3,-2.4 -2.3,-3.4c-1,-1 -2.1,-1.8 -3.4,-2.4c-1.3,-0.6 -2.7,-0.9 -4.3,-0.9l-16.3,0l0,21.6l16.5,0c1.5,0 2.9,-0.3 4.2,-0.9c1.3,-0.6 2.4,-1.4 3.4,-2.4c0.9,-1 1.7,-2.1 2.2,-3.4c0.6,-1.3 0.8,-2.6 0.8,-4.1z" class="st0"/>
    <path stroke="null" id="svg_6" d="m258.9,610.9c-0.2,0.4 -0.4,0.8 -0.8,1s-0.8,0.4 -1.3,0.4l-4.1,0c-1.2,0 -1.8,-0.4 -1.8,-1.3c0,-0.2 0,-0.3 0,-0.4c0,-0.1 0,-0.2 0.1,-0.3s0.1,-0.2 0.1,-0.3l22.1,-53c0.1,-0.1 0.1,-0.3 0.2,-0.4c0.1,-0.2 0.2,-0.3 0.3,-0.5c0.1,-0.1 0.3,-0.3 0.6,-0.4s0.6,-0.2 1,-0.2l2.5,0c0.4,0 0.7,0.1 0.9,0.2s0.4,0.2 0.6,0.4c0.1,0.1 0.2,0.3 0.3,0.5c0.1,0.2 0.1,0.3 0.2,0.4l21.9,53c0,0.1 0.1,0.3 0.1,0.4c0,0.1 0.1,0.2 0.1,0.4c0,0.1 0,0.2 0,0.3c0,0.9 -0.6,1.3 -1.8,1.3l-4.1,0c-0.5,0 -0.9,-0.1 -1.3,-0.4c-0.3,-0.3 -0.6,-0.6 -0.8,-1l-4.2,-10.5l-26.7,0c-0.9,2.3 -1.7,4.3 -2.4,6.2c-0.8,1.7 -1.3,3.2 -1.7,4.2zm7.2,-17.9l20.8,0l-10.3,-26.2l-10.5,26.2z" class="st0"/>
    <path stroke="null" id="svg_7" d="m340,555.6c0.5,0 0.9,0.1 1.2,0.4s0.6,0.7 0.6,1.3l0,3.9c0,0.5 -0.2,0.9 -0.5,1.3c-0.3,0.4 -0.8,0.6 -1.4,0.6l-15.9,0l0,47.6c0,0.5 -0.2,0.9 -0.5,1.2c-0.3,0.4 -0.7,0.5 -1.3,0.5l-3.9,0c-0.5,0 -0.9,-0.2 -1.2,-0.5c-0.4,-0.3 -0.5,-0.8 -0.5,-1.3l0,-47.6l-16,0c-0.5,0 -0.9,-0.2 -1.3,-0.5c-0.3,-0.3 -0.5,-0.8 -0.5,-1.4l0,-3.9c0,-0.5 0.2,-0.9 0.5,-1.2c0.3,-0.3 0.8,-0.5 1.3,-0.5l39.4,0l0,0.1z" class="st0"/>
   </g>
  </g>
  <style type="text/css">.st0{fill:#6c757d;}
	.st1{enable-background:new    ;}</style>
  <g stroke="null" id="svg_23" fill="none">
   <path stroke="#6c757d" d="m159.99998,2.66636c-85.50979,0 -154.8022,69.29242 -154.8022,154.8022s69.29241,154.8022 154.8022,154.8022s154.8022,-69.29241 154.8022,-154.8022s-69.29242,-154.8022 -154.8022,-154.8022zm-88.21269,218.44311c0,-16.46309 12.77733,-29.97757 29.24042,-30.71472l0.49143,60.93801c-16.46309,-0.24572 -29.48613,-13.7602 -29.73185,-30.22329zm182.81403,-98.0414c0,0.73716 -0.73715,1.22859 -1.22859,1.47431c0,1.96574 0,4.42292 -0.24572,5.89723c-0.98287,4.66864 -2.94861,8.3544 -5.89722,11.54873l0,0c-9.583,9.09156 -18.67455,7.61726 -35.62908,4.91436c-3.19433,-0.49144 -6.63438,-0.98287 -10.56587,-1.72002c-1.4743,-0.24572 -3.44004,-0.73716 -5.40579,-0.98287l-0.24571,0.73715c0,0.49143 -0.49144,0.73715 -0.98288,0.49143c0,0 -12.28588,-3.19433 -16.21737,-4.66863c-11.0573,-4.1772 -16.95453,-12.28589 -17.44596,-24.8175c-2.21146,-1.22859 -3.68577,-3.19433 -3.68577,-5.16007l0,-0.24572c-11.79445,0 -17.69168,0 -26.78324,0.24572l0,0c-14.00591,0 -25.30893,11.54873 -25.30893,25.55465s11.54874,25.55465 25.55465,25.30893l14.49735,0l3.68577,0c0.24572,0 0.24572,0 0.24572,0l0,0l14.49735,0c17.93739,0 33.1719,14.49735 33.1719,32.43474s-14.25164,32.68047 -32.43475,32.92619l-31.94331,0.24571c-2.7029,13.51448 -14.25163,23.83463 -28.50327,24.57178l-0.49143,-60.93801c15.97165,0.49144 28.9947,13.26876 29.48613,29.24042l31.45188,-0.24572c14.00591,0 25.55465,-11.54873 25.30893,-25.55465c0,-14.00591 -11.54874,-25.55465 -25.55465,-25.30893l-14.49735,0l-5.89722,0c-0.24572,0 1.4743,0 -2.45718,0l0,0l-12.28589,0c-17.9374,0 -31.94331,-13.26876 -32.18903,-31.20616c0,-17.93739 14.98878,-31.69759 32.92618,-31.69759l0,0c8.84584,0 17.9374,-1.22859 26.78324,-1.22859c0.24572,-1.96574 1.72002,-4.42292 3.68577,-5.40579c0.73715,-11.79445 6.38866,-19.65742 17.20024,-23.83463c3.44005,-1.22858 12.53161,-3.93148 16.21737,-4.91435l0.24572,0c0.24572,0 0.49144,0 0.49144,0c0.24572,0 0.24572,0.24572 0.24572,0.49143l0.24571,0.73716c1.72003,-0.49144 3.93149,-0.73716 5.4058,-0.98287c3.93148,-0.49144 7.37153,-1.22859 10.56586,-1.72003c16.70881,-2.94861 26.04609,-4.42292 35.62908,4.42292l0,0c2.94861,2.94862 4.91435,6.8801 5.89723,11.54874c0.24571,1.22859 0.49143,3.68577 0.49143,5.89723c0.73715,0.24571 1.22859,0.73715 1.22859,1.4743l0.73715,4.42292c0.24572,0.98287 -0.49143,1.72003 -1.4743,1.72003l-4.17721,0c-0.98287,0 -1.72002,-0.73716 -1.4743,-1.72003l0.73715,-4.42292c0,-0.49143 0.24572,-0.98287 0.73715,-1.22859c0,-1.96574 0,-4.42292 -0.24572,-5.40579c-0.73715,-3.93148 -2.45717,-7.12581 -4.91435,-9.58299c-8.10869,-7.61725 -15.72594,-6.38866 -32.43475,-3.44005c-3.19433,0.49144 -6.8801,1.22859 -10.81158,1.72003c-1.22859,0.24571 -3.19433,0.49143 -4.91436,0.98287l0.49144,1.72002c0,0.49144 -0.24572,0.73715 -0.49144,0.98287l-0.24571,0c-7.61726,1.96574 -13.02305,3.68577 -15.23451,4.42292c-7.37153,2.94861 -11.0573,7.61725 -12.04017,15.48022c0.73716,0.49144 1.22859,1.47431 1.22859,2.45718l0,13.7602c0,1.22858 -0.49143,1.96574 -1.22859,2.70289c0.73716,8.60012 4.42292,13.7602 12.28589,16.70881c3.44005,1.22859 13.51448,3.93148 15.48022,4.42292c0.49144,0 0.73716,0.49144 0.49144,0.98287l-0.49144,1.72002c1.72003,0.24572 3.68577,0.73716 4.91436,0.98288c3.93148,0.49143 7.61725,1.22858 10.81158,1.72002c16.70881,2.7029 24.32606,3.93148 32.43475,-3.93148c2.45717,-2.45718 4.1772,-5.89723 4.91435,-9.583c0.24572,-0.98287 0.24572,-3.44005 0.24572,-5.40579c-0.24572,-0.24572 -0.73715,-0.73715 -0.73715,-1.22859l-0.73716,-4.42292c-0.24571,-0.98287 0.49144,-1.72002 1.47431,-1.72002l4.1772,0c0.98287,0 1.72003,0.73715 1.47431,1.72002l-0.24572,3.93149l0,-0.00001z" class="st0" id="svg_14" fill="#6c757d"/>
   <g stroke="null" transform="matrix(43.750697478274326,0,0,26.207648716419207,-182118.19854733467,-128512.03069789446) " id="svg_13"/>
  </g>
 </g>
</svg>