<svg width="320" height="320" xmlns="http://www.w3.org/2000/svg" stroke="null" style="vector-effect: non-scaling-stroke;">
 <style stroke="null" type="text/css">.st0{fill:#2672AF;}
	.st1{enable-background:new    ;}</style>

 <g stroke="null">
  <title stroke="null">background</title>
  <rect stroke="null" fill="none" id="canvas_background" height="322" width="322" y="-1" x="-1"/>
 </g>
 <g stroke="null">
  <title stroke="null">Layer 1</title>
  <path stroke="null" d="m201,400.3c-34.8,0 -63,28.2 -63,63s28.2,63 63,63s63,-28.2 63,-63s-28.2,-63 -63,-63zm-35.9,88.9c0,-6.7 5.2,-12.2 11.9,-12.5l0.2,24.8c-6.7,-0.1 -12,-5.6 -12.1,-12.3zm74.4,-39.9c0,0.3 -0.3,0.5 -0.5,0.6c0,0.8 0,1.8 -0.1,2.4c-0.4,1.9 -1.2,3.4 -2.4,4.7l0,0c-3.9,3.7 -7.6,3.1 -14.5,2c-1.3,-0.2 -2.7,-0.4 -4.3,-0.7c-0.6,-0.1 -1.4,-0.3 -2.2,-0.4l-0.1,0.3c0,0.2 -0.2,0.3 -0.4,0.2c0,0 -5,-1.3 -6.6,-1.9c-4.5,-1.7 -6.9,-5 -7.1,-10.1c-0.9,-0.5 -1.5,-1.3 -1.5,-2.1l0,-0.1c-4.8,0 -7.2,0 -10.9,0.1l0,0c-5.7,0 -10.3,4.7 -10.3,10.4s4.7,10.4 10.4,10.3l5.9,0l1.5,0c0.1,0 0.1,0 0.1,0l0,0l5.9,0c7.3,0 13.5,5.9 13.5,13.2s-5.8,13.3 -13.2,13.4l-13,0.1c-1.1,5.5 -5.8,9.7 -11.6,10l-0.2,-24.8c6.5,0.2 11.8,5.4 12,11.9l12.8,-0.1c5.7,0 10.4,-4.7 10.3,-10.4c0,-5.7 -4.7,-10.4 -10.4,-10.3l-5.9,0l-2.4,0c-0.1,0 0.6,0 -1,0l0,0l-5,0c-7.3,0 -13,-5.4 -13.1,-12.7c0,-7.3 6.1,-12.9 13.4,-12.9l0,0c3.6,0 7.3,-0.5 10.9,-0.5c0.1,-0.8 0.7,-1.8 1.5,-2.2c0.3,-4.8 2.6,-8 7,-9.7c1.4,-0.5 5.1,-1.6 6.6,-2l0.1,0c0.1,0 0.2,0 0.2,0c0.1,0 0.1,0.1 0.1,0.2l0.1,0.3c0.7,-0.2 1.6,-0.3 2.2,-0.4c1.6,-0.2 3,-0.5 4.3,-0.7c6.8,-1.2 10.6,-1.8 14.5,1.8l0,0c1.2,1.2 2,2.8 2.4,4.7c0.1,0.5 0.2,1.5 0.2,2.4c0.3,0.1 0.5,0.3 0.5,0.6l0.3,1.8c0.1,0.4 -0.2,0.7 -0.6,0.7l-1.7,0c-0.4,0 -0.7,-0.3 -0.6,-0.7l0.3,-1.8c0,-0.2 0.1,-0.4 0.3,-0.5c0,-0.8 0,-1.8 -0.1,-2.2c-0.3,-1.6 -1,-2.9 -2,-3.9c-3.3,-3.1 -6.4,-2.6 -13.2,-1.4c-1.3,0.2 -2.8,0.5 -4.4,0.7c-0.5,0.1 -1.3,0.2 -2,0.4l0.2,0.7c0,0.2 -0.1,0.3 -0.2,0.4l-0.1,0c-3.1,0.8 -5.3,1.5 -6.2,1.8c-3,1.2 -4.5,3.1 -4.9,6.3c0.3,0.2 0.5,0.6 0.5,1l0,5.6c0,0.5 -0.2,0.8 -0.5,1.1c0.3,3.5 1.8,5.6 5,6.8c1.4,0.5 5.5,1.6 6.3,1.8c0.2,0 0.3,0.2 0.2,0.4l-0.2,0.7c0.7,0.1 1.5,0.3 2,0.4c1.6,0.2 3.1,0.5 4.4,0.7c6.8,1.1 9.9,1.6 13.2,-1.6c1,-1 1.7,-2.4 2,-3.9c0.1,-0.4 0.1,-1.4 0.1,-2.2c-0.1,-0.1 -0.3,-0.3 -0.3,-0.5l-0.3,-1.8c-0.1,-0.4 0.2,-0.7 0.6,-0.7l1.7,0c0.4,0 0.7,0.3 0.6,0.7l-0.1,1.6z" class="st0" id="XMLID_101_"/>
  <g stroke="null" id="XMLID_19_">
   <g stroke="null" id="svg_1" class="st1">
    <path stroke="null" id="svg_2" d="m96.5,568c-0.4,-0.2 -0.9,-0.7 -1.8,-1.3c-0.8,-0.7 -1.8,-1.3 -3,-2c-1.2,-0.7 -2.5,-1.3 -4,-1.9c-1.5,-0.5 -3.1,-0.8 -4.8,-0.8c-2,0 -3.7,0.2 -5.2,0.7c-1.5,0.5 -2.7,1.1 -3.6,1.9s-1.6,1.7 -2.1,2.7c-0.4,1 -0.7,2 -0.7,3c0,1.4 0.5,2.6 1.4,3.6c0.9,1 2.2,1.8 3.7,2.5s3.3,1.4 5.3,1.9c2,0.6 4,1.2 6,1.8c2.1,0.6 4.1,1.4 6,2.1c2,0.8 3.7,1.8 5.3,2.9c1.6,1.2 2.8,2.6 3.7,4.2c0.9,1.6 1.4,3.6 1.4,5.9c0,2.7 -0.6,5.1 -1.7,7.3c-1.1,2.2 -2.6,4 -4.5,5.6c-1.9,1.5 -4.2,2.7 -6.8,3.6s-5.4,1.3 -8.4,1.3c-2,0 -4,-0.2 -5.9,-0.7c-2,-0.4 -3.8,-1.1 -5.6,-2c-1.8,-0.9 -3.5,-1.9 -5,-3.1c-1.6,-1.2 -2.9,-2.6 -4.2,-4.2c-0.3,-0.4 -0.5,-0.8 -0.5,-1.2c0,-0.4 0.2,-0.8 0.7,-1.1l3,-2.5c0.4,-0.4 0.9,-0.5 1.3,-0.5c0.4,0 0.8,0.3 1.1,0.7l0.5,0.5c1.1,1.2 2.3,2.2 3.7,3.1c1.4,0.9 2.7,1.6 4.1,2.2c1.4,0.6 2.7,1 3.9,1.3c1.2,0.3 2.3,0.4 3.2,0.4c1.6,0 3.1,-0.2 4.8,-0.6c1.6,-0.4 3.1,-1 4.5,-1.9c1.4,-0.8 2.5,-1.9 3.3,-3.2c0.9,-1.3 1.3,-2.8 1.3,-4.5c0,-1.5 -0.4,-2.7 -1.3,-3.7c-0.9,-1 -2,-1.9 -3.5,-2.6c-1.5,-0.8 -3.2,-1.4 -5.1,-2c-1.9,-0.6 -4,-1.2 -6.3,-1.9c-3.1,-0.9 -5.7,-1.8 -7.9,-2.8c-2.2,-1 -4,-2.1 -5.4,-3.3s-2.5,-2.5 -3.1,-4c-0.7,-1.5 -1,-3.1 -1,-5c0,-2.3 0.5,-4.4 1.4,-6.4c0.9,-1.9 2.2,-3.6 4,-5c1.7,-1.4 3.8,-2.5 6.2,-3.3s5.1,-1.2 8.1,-1.2c1.6,0 3.3,0.2 5,0.6c1.7,0.4 3.4,1 5.1,1.7c1.6,0.7 3.2,1.6 4.6,2.6c1.4,1 2.7,2.1 3.7,3.3c0.4,0.4 0.5,0.8 0.6,1.2c0,0.4 -0.2,0.8 -0.6,1.2l-2.7,2.6c-0.4,0.4 -0.8,0.6 -1.2,0.5s-0.6,0.1 -1,-0.2z" class="st0"/>
    <path stroke="null" id="svg_3" d="m140.9,585.1c0.5,0 0.9,0.1 1.2,0.4c0.3,0.3 0.5,0.7 0.5,1.2l0,4c0,0.5 -0.2,0.9 -0.5,1.2c-0.3,0.4 -0.7,0.5 -1.2,0.5l-24.8,0c-1.2,0 -1.8,-0.6 -1.8,-1.8l0,-4c0,-1.1 0.6,-1.7 1.8,-1.7l24.8,0l0,0.2z" class="st0"/>
    <path stroke="null" id="svg_4" d="m191.2,555.6c0.5,0 0.9,0.1 1.2,0.4c0.4,0.3 0.6,0.7 0.6,1.3l0,3.9c0,0.5 -0.2,0.9 -0.5,1.3c-0.3,0.4 -0.8,0.6 -1.4,0.6l-15.9,0l0,47.6c0,0.5 -0.2,0.9 -0.5,1.2c-0.3,0.4 -0.7,0.5 -1.3,0.5l-3.9,0c-0.5,0 -0.9,-0.2 -1.2,-0.5c-0.4,-0.3 -0.5,-0.8 -0.5,-1.3l0,-47.6l-16,0c-0.5,0 -0.9,-0.2 -1.3,-0.5c-0.3,-0.3 -0.5,-0.8 -0.5,-1.4l0,-3.9c0,-0.5 0.2,-0.9 0.5,-1.2c0.3,-0.3 0.8,-0.5 1.3,-0.5l39.4,0l0,0.1z" class="st0"/>
    <path stroke="null" id="svg_5" d="m201.7,557.4c0,-1.2 0.6,-1.8 1.7,-1.8l22.1,0c2.5,0 4.9,0.5 7.1,1.4c2.2,1 4.1,2.3 5.7,3.9c1.6,1.6 2.9,3.6 3.8,5.8c0.9,2.2 1.4,4.6 1.4,7.1c0,1.8 -0.2,3.5 -0.7,5.1c-0.5,1.6 -1.2,3.2 -2.1,4.6c-0.9,1.4 -2,2.7 -3.2,3.8c-1.2,1.1 -2.6,2 -4.2,2.8l10.1,20.7l0,0.5c0,0.8 -0.5,1.2 -1.4,1.2l-4.6,0c-0.8,0 -1.4,-0.5 -1.8,-1.4l-9.2,-19.3c-0.2,0 -0.4,0 -0.7,0s-0.6,0 -1,0c-0.4,0 -1,0 -1.8,0c-0.7,0 -1.7,0 -2.9,0c-1.2,0 -2.7,0 -4.5,0s-3.9,0 -6.4,0l0,18.9c0,1.1 -0.6,1.7 -1.8,1.7l-4,0c-1.1,0 -1.7,-0.6 -1.7,-1.7l0,-53.3l0.1,0zm34.5,16.2c0,-1.4 -0.3,-2.8 -0.8,-4.1c-0.5,-1.3 -1.3,-2.4 -2.3,-3.4c-1,-1 -2.1,-1.8 -3.4,-2.4c-1.3,-0.6 -2.7,-0.9 -4.3,-0.9l-16.3,0l0,21.6l16.5,0c1.5,0 2.9,-0.3 4.2,-0.9c1.3,-0.6 2.4,-1.4 3.4,-2.4c0.9,-1 1.7,-2.1 2.2,-3.4c0.6,-1.3 0.8,-2.6 0.8,-4.1z" class="st0"/>
    <path stroke="null" id="svg_6" d="m258.9,610.9c-0.2,0.4 -0.4,0.8 -0.8,1s-0.8,0.4 -1.3,0.4l-4.1,0c-1.2,0 -1.8,-0.4 -1.8,-1.3c0,-0.2 0,-0.3 0,-0.4c0,-0.1 0,-0.2 0.1,-0.3s0.1,-0.2 0.1,-0.3l22.1,-53c0.1,-0.1 0.1,-0.3 0.2,-0.4c0.1,-0.2 0.2,-0.3 0.3,-0.5c0.1,-0.1 0.3,-0.3 0.6,-0.4s0.6,-0.2 1,-0.2l2.5,0c0.4,0 0.7,0.1 0.9,0.2s0.4,0.2 0.6,0.4c0.1,0.1 0.2,0.3 0.3,0.5c0.1,0.2 0.1,0.3 0.2,0.4l21.9,53c0,0.1 0.1,0.3 0.1,0.4c0,0.1 0.1,0.2 0.1,0.4c0,0.1 0,0.2 0,0.3c0,0.9 -0.6,1.3 -1.8,1.3l-4.1,0c-0.5,0 -0.9,-0.1 -1.3,-0.4c-0.3,-0.3 -0.6,-0.6 -0.8,-1l-4.2,-10.5l-26.7,0c-0.9,2.3 -1.7,4.3 -2.4,6.2c-0.8,1.7 -1.3,3.2 -1.7,4.2zm7.2,-17.9l20.8,0l-10.3,-26.2l-10.5,26.2z" class="st0"/>
    <path stroke="null" id="svg_7" d="m340,555.6c0.5,0 0.9,0.1 1.2,0.4s0.6,0.7 0.6,1.3l0,3.9c0,0.5 -0.2,0.9 -0.5,1.3c-0.3,0.4 -0.8,0.6 -1.4,0.6l-15.9,0l0,47.6c0,0.5 -0.2,0.9 -0.5,1.2c-0.3,0.4 -0.7,0.5 -1.3,0.5l-3.9,0c-0.5,0 -0.9,-0.2 -1.2,-0.5c-0.4,-0.3 -0.5,-0.8 -0.5,-1.3l0,-47.6l-16,0c-0.5,0 -0.9,-0.2 -1.3,-0.5c-0.3,-0.3 -0.5,-0.8 -0.5,-1.4l0,-3.9c0,-0.5 0.2,-0.9 0.5,-1.2c0.3,-0.3 0.8,-0.5 1.3,-0.5l39.4,0l0,0.1z" class="st0"/>
   </g>
  </g>
  <style stroke="null" transform="matrix(0.05624209369366273,0,0,0.05624209369366273,15.256604982490689,-95.35378114056681) " type="text/css">.st0{fill:#2672AF;}
	.st1{enable-background:new    ;}</style>
  <g stroke="null" id="svg_23">
   <path stroke="null" d="m158.787116,2.666363c-85.509787,0 -154.802201,69.292414 -154.802201,154.802201s69.292414,154.802201 154.802201,154.802201s154.802201,-69.292414 154.802201,-154.802201s-69.292414,-154.802201 -154.802201,-154.802201zm-88.212683,218.443106c0,-16.463091 12.777325,-29.977569 29.240416,-30.714722l0.491436,60.938009c-16.463091,-0.245718 -29.486134,-13.760196 -29.731851,-30.223287zm182.814028,-98.041394c0,0.737153 -0.737153,1.228589 -1.228589,1.474307c0,1.965742 0,4.42292 -0.245718,5.897227c-0.982871,4.668638 -2.948613,8.354405 -5.897227,11.548736l0,0c-9.582993,9.091558 -18.674551,7.617251 -35.629078,4.914356c-3.194331,-0.491436 -6.63438,-0.982871 -10.565865,-1.720024c-1.474307,-0.245718 -3.440049,-0.737153 -5.405791,-0.982871l-0.245718,0.737153c0,0.491436 -0.491436,0.737153 -0.982871,0.491436c0,0 -12.285889,-3.194331 -16.217373,-4.668638c-11.0573,-4.177202 -16.954527,-12.285889 -17.445962,-24.817496c-2.21146,-1.228589 -3.685767,-3.194331 -3.685767,-5.160073l0,-0.245718c-11.794453,0 -17.69168,0 -26.783238,0.245718l0,0c-14.005913,0 -25.308931,11.548736 -25.308931,25.554649s11.548736,25.554649 25.554649,25.308931l14.497349,0l3.685767,0c0.245718,0 0.245718,0 0.245718,0l0,0l14.497349,0c17.937398,0 33.1719,14.497349 33.1719,32.434747s-14.251631,32.680465 -32.434747,32.926182l-31.943311,0.245718c-2.702896,13.514478 -14.251631,23.834625 -28.503262,24.571778l-0.491436,-60.938009c15.971656,0.491436 28.994698,13.26876 29.486134,29.240416l31.451876,-0.245718c14.005913,0 25.554649,-11.548736 25.308931,-25.554649c0,-14.005913 -11.548736,-25.554649 -25.554649,-25.308931l-14.497349,0l-5.897227,0c-0.245718,0 1.474307,0 -2.457178,0l0,0l-12.285889,0c-17.937398,0 -31.943311,-13.26876 -32.189029,-31.206158c0,-17.937398 14.988785,-31.697594 32.926182,-31.697594l0,0c8.84584,0 17.937398,-1.228589 26.783238,-1.228589c0.245718,-1.965742 1.720024,-4.42292 3.685767,-5.405791c0.737153,-11.794453 6.388662,-19.657422 17.200245,-23.834625c3.440049,-1.228589 12.531607,-3.931484 16.217373,-4.914356l0.245718,0c0.245718,0 0.491436,0 0.491436,0c0.245718,0 0.245718,0.245718 0.245718,0.491436l0.245718,0.737153c1.720024,-0.491436 3.931484,-0.737153 5.405791,-0.982871c3.931484,-0.491436 7.371533,-1.228589 10.565865,-1.720024c16.708809,-2.948613 26.046085,-4.42292 35.629078,4.42292l0,0c2.948613,2.948613 4.914356,6.880098 5.897227,11.548736c0.245718,1.228589 0.491436,3.685767 0.491436,5.897227c0.737153,0.245718 1.228589,0.737153 1.228589,1.474307l0.737153,4.42292c0.245718,0.982871 -0.491436,1.720024 -1.474307,1.720024l-4.177202,0c-0.982871,0 -1.720024,-0.737153 -1.474307,-1.720024l0.737153,-4.42292c0,-0.491436 0.245718,-0.982871 0.737153,-1.228589c0,-1.965742 0,-4.42292 -0.245718,-5.405791c-0.737153,-3.931484 -2.457178,-7.125816 -4.914356,-9.582993c-8.108687,-7.617251 -15.725938,-6.388662 -32.434747,-3.440049c-3.194331,0.491436 -6.880098,1.228589 -10.811582,1.720024c-1.228589,0.245718 -3.194331,0.491436 -4.914356,0.982871l0.491436,1.720024c0,0.491436 -0.245718,0.737153 -0.491436,0.982871l-0.245718,0c-7.617251,1.965742 -13.023042,3.685767 -15.234502,4.42292c-7.371533,2.948613 -11.0573,7.617251 -12.040171,15.48022c0.737153,0.491436 1.228589,1.474307 1.228589,2.457178l0,13.760196c0,1.228589 -0.491436,1.965742 -1.228589,2.702896c0.737153,8.600122 4.42292,13.760196 12.285889,16.708809c3.440049,1.228589 13.514478,3.931484 15.48022,4.42292c0.491436,0 0.737153,0.491436 0.491436,0.982871l-0.491436,1.720024c1.720024,0.245718 3.685767,0.737153 4.914356,0.982871c3.931484,0.491436 7.617251,1.228589 10.811582,1.720024c16.708809,2.702896 24.32606,3.931484 32.434747,-3.931484c2.457178,-2.457178 4.177202,-5.897227 4.914356,-9.582993c0.245718,-0.982871 0.245718,-3.440049 0.245718,-5.405791c-0.245718,-0.245718 -0.737153,-0.737153 -0.737153,-1.228589l-0.737153,-4.42292c-0.245718,-0.982871 0.491436,-1.720024 1.474307,-1.720024l4.177202,0c0.982871,0 1.720024,0.737153 1.474307,1.720024l-0.245718,3.931484z" class="st0" id="svg_14"/>
   <g stroke="null" transform="matrix(43.750697478274326,0,0,26.207648716419207,-182118.19854733467,-128512.03069789446) " id="svg_13"/>
  </g>
 </g>
</svg>