<?xml version="1.0" encoding="utf-8"?>
<!-- Generator: Adobe Illustrator 19.0.0, SVG Export Plug-In . SVG Version: 6.00 Build 0)  -->
<svg version="1.1" id="Camada_1" xmlns="http://www.w3.org/2000/svg" xmlns:xlink="http://www.w3.org/1999/xlink" x="0px" y="0px"
	 viewBox="-52 325 506 360" style="enable-background:new -52 325 506 360;" xml:space="preserve">
<style type="text/css">
	.st0{fill:#2672AF;}
	.st1{enable-background:new    ;}
</style>
<path id="XMLID_101_" class="st0" d="M201,400.3c-34.8,0-63,28.2-63,63s28.2,63,63,63s63-28.2,63-63S235.8,400.3,201,400.3z
	 M165.1,489.2c0-6.7,5.2-12.2,11.9-12.5l0.2,24.8C170.5,501.4,165.2,495.9,165.1,489.2z M239.5,449.3c0,0.3-0.3,0.5-0.5,0.6
	c0,0.8,0,1.8-0.1,2.4c-0.4,1.9-1.2,3.4-2.4,4.7l0,0c-3.9,3.7-7.6,3.1-14.5,2c-1.3-0.2-2.7-0.4-4.3-0.7c-0.6-0.1-1.4-0.3-2.2-0.4
	l-0.1,0.3c0,0.2-0.2,0.3-0.4,0.2c0,0-5-1.3-6.6-1.9c-4.5-1.7-6.9-5-7.1-10.1c-0.9-0.5-1.5-1.3-1.5-2.1v-0.1c-4.8,0-7.2,0-10.9,0.1
	l0,0c-5.7,0-10.3,4.7-10.3,10.4s4.7,10.4,10.4,10.3h5.9h1.5c0.1,0,0.1,0,0.1,0l0,0h5.9c7.3,0,13.5,5.9,13.5,13.2
	s-5.8,13.3-13.2,13.4l-13,0.1c-1.1,5.5-5.8,9.7-11.6,10l-0.2-24.8c6.5,0.2,11.8,5.4,12,11.9l12.8-0.1c5.7,0,10.4-4.7,10.3-10.4
	c0-5.7-4.7-10.4-10.4-10.3h-5.9h-2.4c-0.1,0,0.6,0-1,0l0,0h-5c-7.3,0-13-5.4-13.1-12.7c0-7.3,6.1-12.9,13.4-12.9l0,0
	c3.6,0,7.3-0.5,10.9-0.5c0.1-0.8,0.7-1.8,1.5-2.2c0.3-4.8,2.6-8,7-9.7c1.4-0.5,5.1-1.6,6.6-2h0.1c0.1,0,0.2,0,0.2,0
	c0.1,0,0.1,0.1,0.1,0.2l0.1,0.3c0.7-0.2,1.6-0.3,2.2-0.4c1.6-0.2,3-0.5,4.3-0.7c6.8-1.2,10.6-1.8,14.5,1.8l0,0
	c1.2,1.2,2,2.8,2.4,4.7c0.1,0.5,0.2,1.5,0.2,2.4c0.3,0.1,0.5,0.3,0.5,0.6l0.3,1.8c0.1,0.4-0.2,0.7-0.6,0.7h-1.7
	c-0.4,0-0.7-0.3-0.6-0.7l0.3-1.8c0-0.2,0.1-0.4,0.3-0.5c0-0.8,0-1.8-0.1-2.2c-0.3-1.6-1-2.9-2-3.9c-3.3-3.1-6.4-2.6-13.2-1.4
	c-1.3,0.2-2.8,0.5-4.4,0.7c-0.5,0.1-1.3,0.2-2,0.4l0.2,0.7c0,0.2-0.1,0.3-0.2,0.4h-0.1c-3.1,0.8-5.3,1.5-6.2,1.8
	c-3,1.2-4.5,3.1-4.9,6.3c0.3,0.2,0.5,0.6,0.5,1v5.6c0,0.5-0.2,0.8-0.5,1.1c0.3,3.5,1.8,5.6,5,6.8c1.4,0.5,5.5,1.6,6.3,1.8
	c0.2,0,0.3,0.2,0.2,0.4l-0.2,0.7c0.7,0.1,1.5,0.3,2,0.4c1.6,0.2,3.1,0.5,4.4,0.7c6.8,1.1,9.9,1.6,13.2-1.6c1-1,1.7-2.4,2-3.9
	c0.1-0.4,0.1-1.4,0.1-2.2c-0.1-0.1-0.3-0.3-0.3-0.5l-0.3-1.8c-0.1-0.4,0.2-0.7,0.6-0.7h1.7c0.4,0,0.7,0.3,0.6,0.7L239.5,449.3z"/>
<g id="XMLID_19_">
	<g class="st1">
		<path class="st0" d="M96.5,568c-0.4-0.2-0.9-0.7-1.8-1.3c-0.8-0.7-1.8-1.3-3-2c-1.2-0.7-2.5-1.3-4-1.9c-1.5-0.5-3.1-0.8-4.8-0.8
			c-2,0-3.7,0.2-5.2,0.7c-1.5,0.5-2.7,1.1-3.6,1.9s-1.6,1.7-2.1,2.7c-0.4,1-0.7,2-0.7,3c0,1.4,0.5,2.6,1.4,3.6
			c0.9,1,2.2,1.8,3.7,2.5s3.3,1.4,5.3,1.9c2,0.6,4,1.2,6,1.8c2.1,0.6,4.1,1.4,6,2.1c2,0.8,3.7,1.8,5.3,2.9c1.6,1.2,2.8,2.6,3.7,4.2
			c0.9,1.6,1.4,3.6,1.4,5.9c0,2.7-0.6,5.1-1.7,7.3c-1.1,2.2-2.6,4-4.5,5.6c-1.9,1.5-4.2,2.7-6.8,3.6s-5.4,1.3-8.4,1.3
			c-2,0-4-0.2-5.9-0.7c-2-0.4-3.8-1.1-5.6-2c-1.8-0.9-3.5-1.9-5-3.1c-1.6-1.2-2.9-2.6-4.2-4.2c-0.3-0.4-0.5-0.8-0.5-1.2
			c0-0.4,0.2-0.8,0.7-1.1l3-2.5c0.4-0.4,0.9-0.5,1.3-0.5c0.4,0,0.8,0.3,1.1,0.7l0.5,0.5c1.1,1.2,2.3,2.2,3.7,3.1
			c1.4,0.9,2.7,1.6,4.1,2.2c1.4,0.6,2.7,1,3.9,1.3c1.2,0.3,2.3,0.4,3.2,0.4c1.6,0,3.1-0.2,4.8-0.6c1.6-0.4,3.1-1,4.5-1.9
			c1.4-0.8,2.5-1.9,3.3-3.2c0.9-1.3,1.3-2.8,1.3-4.5c0-1.5-0.4-2.7-1.3-3.7c-0.9-1-2-1.9-3.5-2.6c-1.5-0.8-3.2-1.4-5.1-2
			c-1.9-0.6-4-1.2-6.3-1.9c-3.1-0.9-5.7-1.8-7.9-2.8c-2.2-1-4-2.1-5.4-3.3s-2.5-2.5-3.1-4c-0.7-1.5-1-3.1-1-5c0-2.3,0.5-4.4,1.4-6.4
			c0.9-1.9,2.2-3.6,4-5c1.7-1.4,3.8-2.5,6.2-3.3s5.1-1.2,8.1-1.2c1.6,0,3.3,0.2,5,0.6c1.7,0.4,3.4,1,5.1,1.7
			c1.6,0.7,3.2,1.6,4.6,2.6c1.4,1,2.7,2.1,3.7,3.3c0.4,0.4,0.5,0.8,0.6,1.2c0,0.4-0.2,0.8-0.6,1.2l-2.7,2.6
			c-0.4,0.4-0.8,0.6-1.2,0.5S96.9,568.3,96.5,568z"/>
		<path class="st0" d="M140.9,585.1c0.5,0,0.9,0.1,1.2,0.4c0.3,0.3,0.5,0.7,0.5,1.2v4c0,0.5-0.2,0.9-0.5,1.2
			c-0.3,0.4-0.7,0.5-1.2,0.5h-24.8c-1.2,0-1.8-0.6-1.8-1.8v-4c0-1.1,0.6-1.7,1.8-1.7H140.9z"/>
		<path class="st0" d="M191.2,555.6c0.5,0,0.9,0.1,1.2,0.4c0.4,0.3,0.6,0.7,0.6,1.3v3.9c0,0.5-0.2,0.9-0.5,1.3
			c-0.3,0.4-0.8,0.6-1.4,0.6h-15.9v47.6c0,0.5-0.2,0.9-0.5,1.2c-0.3,0.4-0.7,0.5-1.3,0.5h-3.9c-0.5,0-0.9-0.2-1.2-0.5
			c-0.4-0.3-0.5-0.8-0.5-1.3V563h-16c-0.5,0-0.9-0.2-1.3-0.5c-0.3-0.3-0.5-0.8-0.5-1.4v-3.9c0-0.5,0.2-0.9,0.5-1.2
			c0.3-0.3,0.8-0.5,1.3-0.5H191.2z"/>
		<path class="st0" d="M201.7,557.4c0-1.2,0.6-1.8,1.7-1.8h22.1c2.5,0,4.9,0.5,7.1,1.4c2.2,1,4.1,2.3,5.7,3.9
			c1.6,1.6,2.9,3.6,3.8,5.8c0.9,2.2,1.4,4.6,1.4,7.1c0,1.8-0.2,3.5-0.7,5.1c-0.5,1.6-1.2,3.2-2.1,4.6c-0.9,1.4-2,2.7-3.2,3.8
			c-1.2,1.1-2.6,2-4.2,2.8l10.1,20.7v0.5c0,0.8-0.5,1.2-1.4,1.2h-4.6c-0.8,0-1.4-0.5-1.8-1.4l-9.2-19.3c-0.2,0-0.4,0-0.7,0
			s-0.6,0-1,0c-0.4,0-1,0-1.8,0c-0.7,0-1.7,0-2.9,0c-1.2,0-2.7,0-4.5,0s-3.9,0-6.4,0v18.9c0,1.1-0.6,1.7-1.8,1.7h-4
			c-1.1,0-1.7-0.6-1.7-1.7V557.4z M236.2,573.6c0-1.4-0.3-2.8-0.8-4.1c-0.5-1.3-1.3-2.4-2.3-3.4c-1-1-2.1-1.8-3.4-2.4
			c-1.3-0.6-2.7-0.9-4.3-0.9h-16.3v21.6h16.5c1.5,0,2.9-0.3,4.2-0.9c1.3-0.6,2.4-1.4,3.4-2.4c0.9-1,1.7-2.1,2.2-3.4
			C236,576.4,236.2,575.1,236.2,573.6z"/>
		<path class="st0" d="M258.9,610.9c-0.2,0.4-0.4,0.8-0.8,1s-0.8,0.4-1.3,0.4h-4.1c-1.2,0-1.8-0.4-1.8-1.3c0-0.2,0-0.3,0-0.4
			c0-0.1,0-0.2,0.1-0.3s0.1-0.2,0.1-0.3l22.1-53c0.1-0.1,0.1-0.3,0.2-0.4c0.1-0.2,0.2-0.3,0.3-0.5c0.1-0.1,0.3-0.3,0.6-0.4
			s0.6-0.2,1-0.2h2.5c0.4,0,0.7,0.1,0.9,0.2s0.4,0.2,0.6,0.4c0.1,0.1,0.2,0.3,0.3,0.5c0.1,0.2,0.1,0.3,0.2,0.4l21.9,53
			c0,0.1,0.1,0.3,0.1,0.4c0,0.1,0.1,0.2,0.1,0.4c0,0.1,0,0.2,0,0.3c0,0.9-0.6,1.3-1.8,1.3h-4.1c-0.5,0-0.9-0.1-1.3-0.4
			c-0.3-0.3-0.6-0.6-0.8-1l-4.2-10.5H263c-0.9,2.3-1.7,4.3-2.4,6.2C259.8,608.4,259.3,609.9,258.9,610.9z M266.1,593h20.8
			l-10.3-26.2L266.1,593z"/>
		<path class="st0" d="M340,555.6c0.5,0,0.9,0.1,1.2,0.4s0.6,0.7,0.6,1.3v3.9c0,0.5-0.2,0.9-0.5,1.3c-0.3,0.4-0.8,0.6-1.4,0.6H324
			v47.6c0,0.5-0.2,0.9-0.5,1.2c-0.3,0.4-0.7,0.5-1.3,0.5h-3.9c-0.5,0-0.9-0.2-1.2-0.5c-0.4-0.3-0.5-0.8-0.5-1.3V563h-16
			c-0.5,0-0.9-0.2-1.3-0.5c-0.3-0.3-0.5-0.8-0.5-1.4v-3.9c0-0.5,0.2-0.9,0.5-1.2c0.3-0.3,0.8-0.5,1.3-0.5H340z"/>
	</g>
</g>
</svg>
